<?xml version="1.0" standalone="no"?>
<!DOCTYPE svg PUBLIC "-//W3C//DTD SVG 20010904//EN"
 "http://www.w3.org/TR/2001/REC-SVG-20010904/DTD/svg10.dtd">
<svg version="1.0" xmlns="http://www.w3.org/2000/svg"
 width="75.000000pt" height="75.000000pt" viewBox="0 0 75.000000 75.000000"
 preserveAspectRatio="xMidYMid meet">
<metadata>
Created by potrace 1.13, written by Peter Selinger 2001-2015
</metadata>
<g transform="translate(0.000000,75.000000) scale(0.100000,-0.100000)"
fill="#000000" stroke="none">
<path d="M0 712 c0 -37 27 -105 43 -109 18 -3 20 -13 3 -13 -22 0 -12 -37 17
-63 22 -19 38 -14 19 5 -23 23 -12 29 14 9 15 -12 32 -21 38 -21 6 0 -2 10
-18 23 -22 18 -27 28 -21 46 4 14 12 20 21 17 15 -6 18 2 6 21 -9 14 -32 18
-55 8 -28 -12 -44 10 -18 24 15 9 26 8 41 -1 15 -9 23 -10 28 -2 13 20 118 17
169 -6 26 -11 51 -26 55 -33 4 -7 7 -5 7 8 0 11 3 43 7 72 l6 52 -65 0 c-53 0
-65 -3 -60 -15 4 -10 -2 -14 -21 -14 -14 0 -26 -3 -26 -7 0 -5 -27 -8 -60 -7
-45 0 -68 6 -90 22 -16 12 -32 22 -35 22 -3 0 -5 -17 -5 -38z"/>
<path d="M615 740 c-4 -6 -8 -22 -11 -36 -3 -14 -16 -38 -29 -52 -14 -15 -20
-29 -14 -31 5 -1 -7 -15 -28 -31 -41 -29 -99 -45 -108 -30 -3 6 -13 10 -22 10
-9 0 -25 8 -35 17 -18 16 -19 16 -15 -21 3 -21 11 -42 18 -47 11 -7 9 -9 -6
-9 -16 0 -14 -3 10 -16 17 -8 37 -22 45 -30 13 -13 13 -14 -5 -8 -16 6 -18 5
-9 -7 6 -8 10 -35 8 -62 -1 -27 2 -45 7 -41 5 3 9 0 9 -5 0 -15 -13 -14 -35 3
-14 10 -25 11 -38 5 -9 -6 -23 -7 -29 -3 -8 5 -9 2 -5 -9 5 -12 1 -17 -13 -17
-13 0 -20 7 -20 19 0 11 -6 22 -12 25 -10 3 -8 9 5 19 15 13 16 15 2 21 -34
13 -41 -3 -18 -42 12 -19 12 -23 -2 -28 -47 -18 -178 76 -167 119 5 19 3 20
-10 10 -11 -10 -17 -10 -26 -1 -9 9 -16 8 -29 -5 -9 -9 -13 -20 -9 -24 5 -5
11 -2 13 5 8 22 25 13 20 -11 -10 -37 -7 -39 125 -96 26 -11 59 -31 73 -46 15
-14 30 -23 34 -21 4 3 8 -4 8 -15 1 -10 -2 -19 -8 -19 -5 0 -9 6 -9 12 0 7 -7
2 -16 -11 -13 -18 -18 -20 -25 -10 -7 11 -9 10 -9 -3 0 -23 16 -31 57 -30 39
2 44 -15 7 -24 -51 -13 -226 24 -256 54 -7 7 -18 12 -25 12 -16 0 -18 -91 -2
-107 9 -9 9 -20 0 -44 -6 -17 -11 -43 -11 -55 0 -23 3 -24 81 -24 l80 0 -3 33
c-2 17 -7 31 -13 31 -11 -2 -85 34 -85 41 0 7 72 -5 89 -15 9 -5 31 3 60 21
28 19 58 29 82 29 31 0 38 -4 49 -29 6 -17 30 -48 53 -70 l41 -41 99 0 c91 0
102 2 129 25 16 14 35 25 43 25 17 0 45 44 45 70 0 12 -4 19 -8 16 -4 -2 -22
10 -39 27 -30 31 -30 33 -14 52 9 11 26 25 36 31 15 8 21 24 23 60 l2 49 -17
-26 c-15 -25 -45 -39 -113 -53 -34 -8 -141 14 -134 26 4 6 -2 7 -16 3 -16 -5
-21 -4 -18 6 3 9 17 13 36 12 17 -2 34 2 37 7 6 9 -8 14 -28 11 -11 -2 -4 32
8 41 6 5 5 8 -2 8 -7 0 -13 5 -13 10 0 6 9 10 19 10 10 0 22 7 25 16 5 14 4
15 -8 5 -20 -17 -78 -23 -73 -8 2 7 15 12 29 12 17 -1 24 4 21 13 -3 7 -12 11
-19 8 -8 -3 -21 -9 -29 -12 -30 -12 -15 31 21 60 27 21 38 25 44 16 6 -9 12
-10 26 -1 11 6 13 11 6 11 -7 0 -11 4 -8 9 8 13 68 20 88 10 11 -6 18 -4 22 6
7 19 26 20 26 2 0 -12 14 -22 63 -45 4 -2 7 51 7 117 l0 121 -64 0 c-36 0 -68
-5 -71 -10z m-68 -527 c3 -8 12 -12 20 -9 9 4 11 2 7 -6 -5 -8 -2 -9 9 -5 13
5 17 1 18 -16 1 -42 8 -62 26 -76 16 -12 16 -13 1 -8 -13 5 -19 0 -24 -19 -5
-19 -9 -22 -20 -13 -11 9 -14 7 -14 -8 0 -30 -40 -46 -90 -38 -32 5 -54 19
-86 51 -24 24 -44 48 -44 54 0 6 14 -6 32 -26 29 -32 58 -51 82 -52 5 0 12 -6
17 -13 6 -10 11 -10 22 -1 8 7 23 9 33 5 17 -6 17 -5 6 10 -8 9 -10 22 -6 29
4 7 4 10 -1 6 -19 -17 -47 38 -33 65 13 26 -9 21 -39 -9 -29 -29 -42 -28 -15
2 10 11 17 25 15 31 -3 7 4 9 16 6 12 -3 21 -1 21 6 0 6 -3 11 -7 11 -24 1
-35 18 -24 38 10 18 15 20 42 10 17 -6 33 -17 36 -25z"/>
</g>
</svg>
